<svg width="41" height="40" viewBox="0 0 41 40" fill="none" xmlns="http://www.w3.org/2000/svg">
<path d="M40.1895 38.8227L21.2511 19.8835L40.0982 1.03646C40.325 0.810061 40.325 0.44216 40.0982 0.21536C39.8714 -0.0110405 39.5043 -0.0110405 39.2775 0.21536L20.4304 19.0624L1.58456 0.21536C1.35776 -0.0114391 0.990658 -0.0110405 0.763859 0.21536C0.537059 0.44216 0.537059 0.809662 0.763859 1.03646L19.6097 19.8835L0.670588 38.8227C0.443788 39.0495 0.443788 39.417 0.670588 39.6438C0.783788 39.757 0.932463 39.814 1.08114 39.814C1.22981 39.814 1.37809 39.757 1.49169 39.6438L20.4308 20.7046L39.3692 39.6438C39.4824 39.757 39.6311 39.814 39.7797 39.814C39.9284 39.814 40.0767 39.757 40.1903 39.6438C40.4163 39.417 40.4163 39.0495 40.1895 38.8227Z" fill="#8C8C8C"/>
</svg>
