<svg width="73" height="84" fill="none" xmlns="http://www.w3.org/2000/svg"><path d="M36.809 45.729c-19.984 0-36.24 16.255-36.24 36.24 0 .764.67 1.433 1.435 1.433h69.514c.765 0 1.434-.669 1.434-1.434.096-19.984-16.16-36.239-36.143-36.239Zm0 2.868c4.398 0 8.701.861 12.526 2.487l-12.048 8.892-12.909-8.892c3.825-1.626 8.032-2.487 12.43-2.487ZM3.534 80.534c.478-12.144 7.65-22.662 17.785-28.112l15.203 10.422c.287.192.574.287.765.287.287 0 .574-.095.86-.287L52.3 52.422c10.23 5.355 17.307 15.873 17.785 28.112H3.534Z" fill="url(#a)"/><path d="M36.235 41.809c11.474 0 20.845-9.37 20.845-20.845C57.08 9.49 47.71.12 36.235.12 24.761.12 15.39 9.49 15.39 20.964c0 11.57 9.371 20.845 20.845 20.845Zm0-38.725c7.65 0 14.151 4.78 16.733 11.474-.86-.478-1.912-1.052-2.868-1.626-4.016-2.39-6.79-3.92-8.606-3.729-3.633.287-5.737 1.721-8.032 3.156-1.243.764-2.582 1.625-4.207 2.294l-.478.192c-3.538 1.434-5.737 2.39-10.04 2.868 1.434-8.319 8.701-14.63 17.498-14.63ZM18.26 20.582c5.163-.478 7.745-1.53 11.474-3.156l.478-.191c1.913-.765 3.347-1.721 4.685-2.582 2.104-1.338 3.92-2.486 6.79-2.677 1.051-.096 4.684 2.104 6.884 3.347 2.199 1.338 4.016 2.39 5.354 2.773.191.956.287 1.912.287 2.868 0 9.849-8.032 17.976-17.976 17.976-9.944 0-17.976-8.032-17.976-17.976v-.382Z" fill="url(#b)"/><defs><linearGradient id="a" x1="54.346" y1="41.377" x2="31.559" y2="93.198" gradientUnits="userSpaceOnUse"><stop offset=".118" stop-color="#7ACA37"/><stop offset=".256" stop-color="#70C53A"/><stop offset=".489" stop-color="#56B641"/><stop offset=".785" stop-color="#2C9F4E"/><stop offset="1" stop-color="#098C58"/></linearGradient><linearGradient id="b" x1="46.363" y1="-4.696" x2="12.627" y2="35.234" gradientUnits="userSpaceOnUse"><stop offset=".118" stop-color="#7ACA37"/><stop offset=".256" stop-color="#70C53A"/><stop offset=".489" stop-color="#56B641"/><stop offset=".785" stop-color="#2C9F4E"/><stop offset="1" stop-color="#098C58"/></linearGradient></defs></svg>