<svg width="148" height="148" fill="none" xmlns="http://www.w3.org/2000/svg"><path fill-rule="evenodd" clip-rule="evenodd" d="M33 0C14.774 0 0 14.775 0 33v39.99c3.13-.063 6.148-.082 9.07-.101 18.769-.123 33.537-.22 48.43-11.389C71.67 50.872 72.028 23.867 72.233 8.356v-.014c.046-3.455.084-6.338.267-8.342H33Zm42 0c.07 3.261.09 6.401.111 9.436v.133c.123 18.77.22 33.539 11.389 48.431 10.628 14.171 37.633 14.528 53.144 14.734 3.46.045 6.349.084 8.356.266V33c0-18.225-14.774-33-33-33H75Zm73 75c-3.31.07-6.493.091-9.57.111-18.769.123-33.537.22-48.43 11.389-14.17 10.628-14.528 37.633-14.733 53.144v.014c-.046 3.455-.084 6.338-.267 8.342h40c18.226 0 33-14.775 33-33V75Zm-75 73c-.07-3.262-.09-6.402-.111-9.437v-.133c-.123-18.769-.22-33.538-11.389-48.43C50.872 75.829 23.867 75.472 8.356 75.266 4.896 75.221 2.006 75.182 0 75v40c0 18.225 14.774 33 33 33h40Z" fill="url(#a)"/><defs><linearGradient id="a" x1="7.255" y1="148" x2="151.661" y2="9.785" gradientUnits="userSpaceOnUse"><stop stop-color="#1D9854"/><stop offset="1" stop-color="#72C63B"/></linearGradient></defs></svg>