<svg xmlns="http://www.w3.org/2000/svg" width="477" height="477" fill="none"><path opacity=".4" d="M271 240.78 170.75 0S67.82 218.5 207.03 363C279.13 301.02 271 240.78 271 240.78Z" fill="url(#a)"/><path opacity=".4" d="M270.35 241.89 336.75 0S61.66 80.63 206.32 362.84c85.38-35.57 64.03-120.95 64.03-120.95Z" fill="url(#b)"/><path opacity=".4" d="M270.35 241.89 80.63 52.17s-16.6 177.86 125.69 310.67c73.52-45.06 64.03-120.95 64.03-120.95Z" fill="url(#c)"/><path opacity=".4" d="M270.35 241.89 18.97 139.92S49.8 267.98 206.32 362.84c54.55-59.29 64.03-120.95 64.03-120.95Z" fill="url(#d)"/><path opacity=".4" d="M270.35 241.89 0 246.64s45.06 68.77 206.32 116.2c64.03-66.4 64.03-120.95 64.03-120.95Z" fill="url(#e)"/><path opacity=".4" d="M270.35 241.89 35.57 358.1s68.77 49.8 170.75 4.74c52.17-45.06 64.03-120.95 64.03-120.95Z" fill="url(#f)"/><path d="M424.5 208.69s-35.57-28.46-78.26-28.46c-87.75 0-75.89 137.55-225.29 296.44 42.69-9.49 239.52-23.72 239.52-182.61 0-42.68 4.74-75.88 64.03-85.37Z" fill="url(#g)"/><defs><linearGradient id="a" x1="134.118" y1="181.502" x2="271.276" y2="181.502" gradientUnits="userSpaceOnUse"><stop offset=".118" stop-color="#7ACA37"/><stop offset=".256" stop-color="#70C53A"/><stop offset=".489" stop-color="#56B641"/><stop offset=".785" stop-color="#2C9F4E"/><stop offset="1" stop-color="#098C58"/></linearGradient><linearGradient id="b" x1="164.28" y1="181.42" x2="336.754" y2="181.42" gradientUnits="userSpaceOnUse"><stop offset=".118" stop-color="#7ACA37"/><stop offset=".256" stop-color="#70C53A"/><stop offset=".489" stop-color="#56B641"/><stop offset=".785" stop-color="#2C9F4E"/><stop offset="1" stop-color="#098C58"/></linearGradient><linearGradient id="c" x1="80.037" y1="207.507" x2="270.751" y2="207.507" gradientUnits="userSpaceOnUse"><stop offset=".118" stop-color="#7ACA37"/><stop offset=".256" stop-color="#70C53A"/><stop offset=".489" stop-color="#56B641"/><stop offset=".785" stop-color="#2C9F4E"/><stop offset="1" stop-color="#098C58"/></linearGradient><linearGradient id="d" x1="18.972" y1="251.38" x2="270.352" y2="251.38" gradientUnits="userSpaceOnUse"><stop offset=".118" stop-color="#7ACA37"/><stop offset=".256" stop-color="#70C53A"/><stop offset=".489" stop-color="#56B641"/><stop offset=".785" stop-color="#2C9F4E"/><stop offset="1" stop-color="#098C58"/></linearGradient><linearGradient id="e" x1="0" y1="302.367" x2="270.352" y2="302.367" gradientUnits="userSpaceOnUse"><stop offset=".118" stop-color="#7ACA37"/><stop offset=".256" stop-color="#70C53A"/><stop offset=".489" stop-color="#56B641"/><stop offset=".785" stop-color="#2C9F4E"/><stop offset="1" stop-color="#098C58"/></linearGradient><linearGradient id="f" x1="35.573" y1="311.8" x2="270.352" y2="311.8" gradientUnits="userSpaceOnUse"><stop offset=".118" stop-color="#7ACA37"/><stop offset=".256" stop-color="#70C53A"/><stop offset=".489" stop-color="#56B641"/><stop offset=".785" stop-color="#2C9F4E"/><stop offset="1" stop-color="#098C58"/></linearGradient><linearGradient id="g" x1="315.551" y1="234.626" x2="240.609" y2="423.712" gradientUnits="userSpaceOnUse"><stop offset=".118" stop-color="#7ACA37"/><stop offset=".256" stop-color="#70C53A"/><stop offset=".489" stop-color="#56B641"/><stop offset=".785" stop-color="#2C9F4E"/><stop offset="1" stop-color="#098C58"/></linearGradient></defs></svg>