<?xml version="1.0" encoding="UTF-8"?> <svg xmlns="http://www.w3.org/2000/svg" width="477" height="477" viewBox="0 0 477 477" fill="none"> <path opacity="0.4" d="M271 240.78L170.75 0C170.75 0 67.82 218.5 207.03 363C279.13 301.02 271 240.78 271 240.78Z" fill="url(#paint0_linear)"></path> <path opacity="0.4" d="M270.35 241.89L336.75 0C336.75 0 61.66 80.63 206.32 362.84C291.7 327.27 270.35 241.89 270.35 241.89Z" fill="url(#paint1_linear)"></path> <path opacity="0.4" d="M270.35 241.89L80.63 52.1699C80.63 52.1699 64.03 230.03 206.32 362.84C279.84 317.78 270.35 241.89 270.35 241.89Z" fill="url(#paint2_linear)"></path> <path opacity="0.4" d="M270.35 241.89L18.97 139.92C18.97 139.92 49.8 267.98 206.32 362.84C260.87 303.55 270.35 241.89 270.35 241.89Z" fill="url(#paint3_linear)"></path> <path opacity="0.4" d="M270.35 241.89L0 246.64C0 246.64 45.06 315.41 206.32 362.84C270.35 296.44 270.35 241.89 270.35 241.89Z" fill="url(#paint4_linear)"></path> <path opacity="0.4" d="M270.35 241.89L35.5701 358.1C35.5701 358.1 104.34 407.9 206.32 362.84C258.49 317.78 270.35 241.89 270.35 241.89Z" fill="url(#paint5_linear)"></path> <path d="M424.5 208.69C424.5 208.69 388.93 180.23 346.24 180.23C258.49 180.23 270.35 317.78 120.95 476.67C163.64 467.18 360.47 452.95 360.47 294.06C360.47 251.38 365.21 218.18 424.5 208.69Z" fill="url(#paint6_linear)"></path> <defs> <linearGradient id="paint0_linear" x1="134.118" y1="181.502" x2="271.276" y2="181.502" gradientUnits="userSpaceOnUse"> <stop offset="0.1177" stop-color="#7ACA37"></stop> <stop offset="0.2561" stop-color="#70C53A"></stop> <stop offset="0.4886" stop-color="#56B641"></stop> <stop offset="0.7848" stop-color="#2C9F4E"></stop> <stop offset="1" stop-color="#098C58"></stop> </linearGradient> <linearGradient id="paint1_linear" x1="164.28" y1="181.42" x2="336.754" y2="181.42" gradientUnits="userSpaceOnUse"> <stop offset="0.1177" stop-color="#7ACA37"></stop> <stop offset="0.2561" stop-color="#70C53A"></stop> <stop offset="0.4886" stop-color="#56B641"></stop> <stop offset="0.7848" stop-color="#2C9F4E"></stop> <stop offset="1" stop-color="#098C58"></stop> </linearGradient> <linearGradient id="paint2_linear" x1="80.0371" y1="207.507" x2="270.751" y2="207.507" gradientUnits="userSpaceOnUse"> <stop offset="0.1177" stop-color="#7ACA37"></stop> <stop offset="0.2561" stop-color="#70C53A"></stop> <stop offset="0.4886" stop-color="#56B641"></stop> <stop offset="0.7848" stop-color="#2C9F4E"></stop> <stop offset="1" stop-color="#098C58"></stop> </linearGradient> <linearGradient id="paint3_linear" x1="18.9721" y1="251.38" x2="270.352" y2="251.38" gradientUnits="userSpaceOnUse"> <stop offset="0.1177" stop-color="#7ACA37"></stop> <stop offset="0.2561" stop-color="#70C53A"></stop> <stop offset="0.4886" stop-color="#56B641"></stop> <stop offset="0.7848" stop-color="#2C9F4E"></stop> <stop offset="1" stop-color="#098C58"></stop> </linearGradient> <linearGradient id="paint4_linear" x1="0" y1="302.367" x2="270.352" y2="302.367" gradientUnits="userSpaceOnUse"> <stop offset="0.1177" stop-color="#7ACA37"></stop> <stop offset="0.2561" stop-color="#70C53A"></stop> <stop offset="0.4886" stop-color="#56B641"></stop> <stop offset="0.7848" stop-color="#2C9F4E"></stop> <stop offset="1" stop-color="#098C58"></stop> </linearGradient> <linearGradient id="paint5_linear" x1="35.5727" y1="311.8" x2="270.352" y2="311.8" gradientUnits="userSpaceOnUse"> <stop offset="0.1177" stop-color="#7ACA37"></stop> <stop offset="0.2561" stop-color="#70C53A"></stop> <stop offset="0.4886" stop-color="#56B641"></stop> <stop offset="0.7848" stop-color="#2C9F4E"></stop> <stop offset="1" stop-color="#098C58"></stop> </linearGradient> <linearGradient id="paint6_linear" x1="315.551" y1="234.626" x2="240.609" y2="423.712" gradientUnits="userSpaceOnUse"> <stop offset="0.1177" stop-color="#7ACA37"></stop> <stop offset="0.2561" stop-color="#70C53A"></stop> <stop offset="0.4886" stop-color="#56B641"></stop> <stop offset="0.7848" stop-color="#2C9F4E"></stop> <stop offset="1" stop-color="#098C58"></stop> </linearGradient> </defs> </svg> 
