<svg width="96" height="96" fill="none" xmlns="http://www.w3.org/2000/svg"><path d="m76.359 26.938-.002-.018a1.42 1.42 0 0 0-.167-.428 1.424 1.424 0 0 0-.222-.3l-.003-.004-15.25-15.253c0-.002-.001-.002-.002-.003a1.472 1.472 0 0 0-.38-.265c-.109-.054-.224-.1-.347-.124-.008-.002-.014-.001-.022-.002a1.472 1.472 0 0 0-.262-.027H20.568c-.792 0-1.433.642-1.433 1.433v71.626c0 .79.641 1.432 1.433 1.432h54.384c.791 0 1.433-.641 1.433-1.432V27.2c0-.088-.01-.176-.026-.262Zm-15.223-11.53L71.494 25.77H61.136V15.409ZM22.002 82.143v-68.76H58.27v13.82c0 .792.64 1.434 1.432 1.434H73.52v53.507l-51.518-.001Z" fill="url(#a)"/><path d="M46.103 30.469H28.195a1.433 1.433 0 1 0 0 2.865h17.908a1.433 1.433 0 1 0 0-2.865Z" fill="url(#b)"/><path d="M46.103 37.267H28.195a1.433 1.433 0 1 0 0 2.866h17.908a1.433 1.433 0 1 0 0-2.866Z" fill="url(#c)"/><path d="M46.103 44.066H28.195a1.433 1.433 0 1 0 0 2.866h17.908a1.433 1.433 0 1 0 0-2.866Z" fill="url(#d)"/><path d="M60.131 59.623c-4.632 0-8.399 3.766-8.399 8.396 0 4.63 3.768 8.397 8.4 8.397 4.63 0 8.398-3.766 8.398-8.397 0-4.63-3.768-8.396-8.399-8.396Zm0 13.927a5.54 5.54 0 0 1-5.533-5.531 5.538 5.538 0 0 1 5.533-5.53c3.05 0 5.533 2.48 5.533 5.53a5.538 5.538 0 0 1-5.533 5.531Z" fill="url(#e)"/><defs><linearGradient id="a" x1="55.837" y1="24.183" x2="33.135" y2="67.173" gradientUnits="userSpaceOnUse"><stop offset=".118" stop-color="#7ACA37"/><stop offset=".256" stop-color="#70C53A"/><stop offset=".489" stop-color="#56B641"/><stop offset=".785" stop-color="#2C9F4E"/><stop offset="1" stop-color="#098C58"/></linearGradient><linearGradient id="b" x1="40.08" y1="30.995" x2="39.962" y2="33.103" gradientUnits="userSpaceOnUse"><stop offset=".118" stop-color="#7ACA37"/><stop offset=".256" stop-color="#70C53A"/><stop offset=".489" stop-color="#56B641"/><stop offset=".785" stop-color="#2C9F4E"/><stop offset="1" stop-color="#098C58"/></linearGradient><linearGradient id="c" x1="40.08" y1="37.793" x2="39.962" y2="39.901" gradientUnits="userSpaceOnUse"><stop offset=".118" stop-color="#7ACA37"/><stop offset=".256" stop-color="#70C53A"/><stop offset=".489" stop-color="#56B641"/><stop offset=".785" stop-color="#2C9F4E"/><stop offset="1" stop-color="#098C58"/></linearGradient><linearGradient id="d" x1="40.08" y1="44.592" x2="39.962" y2="46.701" gradientUnits="userSpaceOnUse"><stop offset=".118" stop-color="#7ACA37"/><stop offset=".256" stop-color="#70C53A"/><stop offset=".489" stop-color="#56B641"/><stop offset=".785" stop-color="#2C9F4E"/><stop offset="1" stop-color="#098C58"/></linearGradient><linearGradient id="e" x1="62.501" y1="62.705" x2="58.183" y2="73.347" gradientUnits="userSpaceOnUse"><stop offset=".118" stop-color="#7ACA37"/><stop offset=".256" stop-color="#70C53A"/><stop offset=".489" stop-color="#56B641"/><stop offset=".785" stop-color="#2C9F4E"/><stop offset="1" stop-color="#098C58"/></linearGradient></defs></svg>