<svg xmlns="http://www.w3.org/2000/svg" width="1246" height="477" fill="none"><path opacity=".4" d="M271 240.78 170.75 0S67.82 218.5 207.03 363C279.13 301.02 271 240.78 271 240.78Z" fill="url(#a)"/><path opacity=".4" d="M270.35 241.89 336.75 0S61.66 80.63 206.32 362.84c85.38-35.57 64.03-120.95 64.03-120.95Z" fill="url(#b)"/><path opacity=".4" d="M270.35 241.89 80.63 52.17s-16.6 177.86 125.69 310.67c73.52-45.06 64.03-120.95 64.03-120.95Z" fill="url(#c)"/><path opacity=".4" d="M270.35 241.89 18.97 139.92S49.8 267.98 206.32 362.84c54.55-59.29 64.03-120.95 64.03-120.95Z" fill="url(#d)"/><path opacity=".4" d="M270.35 241.89 0 246.64s45.06 68.77 206.32 116.2c64.03-66.4 64.03-120.95 64.03-120.95Z" fill="url(#e)"/><path opacity=".4" d="M270.35 241.89 35.57 358.1s68.77 49.8 170.75 4.74c52.17-45.06 64.03-120.95 64.03-120.95Z" fill="url(#f)"/><path d="M424.5 208.69s-35.57-28.46-78.26-28.46c-87.75 0-75.89 137.55-225.29 296.44 42.69-9.49 239.52-23.72 239.52-182.61 0-42.68 4.74-75.88 64.03-85.37Z" fill="url(#g)"/><path d="M550.393 104.404h-59.527v37.731h30.696c12.89.173 22.952 3.548 30.188 10.125 7.236 6.577 10.854 15.519 10.854 26.827 0 11.365-3.646 20.423-10.939 27.173-7.292 6.75-17.242 10.24-29.848 10.471H474.5v-126h75.893v13.673Zm-59.527 51.404v47.336h29.764c8.084 0 14.359-2.192 18.825-6.576 4.522-4.385 6.783-10.27 6.783-17.654 0-7.097-2.176-12.693-6.529-16.789-4.296-4.096-10.43-6.202-18.401-6.317h-30.442ZM652.828 183.846h-51.726l-11.617 32.885h-16.79l47.147-126h14.246l47.232 126h-16.705l-11.787-32.885Zm-46.808-13.673h41.975l-21.03-58.933-20.945 58.933ZM792.828 216.731h-16.365v-58.24h-62.242v58.24H697.94v-126h16.281v54.173h62.242V90.731h16.365v126ZM853.798 160.135h-15.01v56.596h-16.281v-126h16.281v55.558h12.72l43.162-55.558h20.266l-47.147 61.096 50.624 64.904h-19.927l-44.688-56.596ZM949.618 167.404v49.327h-16.281v-126h45.536c13.511 0 24.087 3.519 31.717 10.557 7.69 7.039 11.53 16.356 11.53 27.952 0 12.231-3.76 21.664-11.28 28.299-7.46 6.577-18.173 9.865-32.136 9.865h-29.086Zm0-13.587h29.255c8.706 0 15.377-2.077 20.012-6.23 4.635-4.212 6.955-10.27 6.955-18.173 0-7.5-2.32-13.5-6.955-18-4.635-4.501-10.995-6.837-19.079-7.01h-30.188v49.413ZM1137.87 157.798c0 12.346-2.04 23.135-6.11 32.366-4.07 9.173-9.83 16.182-17.3 21.029-7.46 4.846-16.16 7.269-26.11 7.269-9.73 0-18.35-2.423-25.87-7.269-7.52-4.904-13.37-11.856-17.55-20.856-4.13-9.058-6.25-19.529-6.36-31.414v-9.086c0-12.116 2.06-22.818 6.19-32.106 4.13-9.289 9.95-16.385 17.47-21.289 7.57-4.961 16.22-7.442 25.95-7.442 9.89 0 18.6 2.452 26.11 7.356 7.58 4.846 13.4 11.913 17.47 21.202 4.07 9.231 6.11 19.99 6.11 32.279v7.961Zm-16.2-8.134c0-14.943-2.94-26.395-8.82-34.356-5.88-8.02-14.1-12.029-24.67-12.029-10.29 0-18.4 4.009-24.34 12.029-5.88 7.961-8.9 19.038-9.07 33.231v9.259c0 14.481 2.96 25.875 8.9 34.183 5.99 8.25 14.22 12.375 24.68 12.375 10.51 0 18.65-3.894 24.42-11.683 5.76-7.846 8.73-19.067 8.9-33.663v-9.346ZM1245.22 104.404h-39.68v112.327h-16.2V104.404h-39.6V90.731h95.48v13.673ZM592.155 403.978h-29.91v-122.63h-57.934v122.63H474.5V256.782h117.655v147.196ZM648.2 352.116v51.862h-29.811V256.782h56.443c10.864 0 20.404 2.022 28.619 6.065 8.281 4.044 14.64 9.807 19.079 17.288 4.438 7.414 6.658 15.872 6.658 25.375 0 14.423-4.869 25.814-14.608 34.171-9.672 8.29-23.087 12.435-40.245 12.435H648.2Zm0-24.567h26.632c7.883 0 13.879-1.887 17.986-5.661 4.174-3.774 6.26-9.166 6.26-16.176 0-7.211-2.086-13.041-6.26-17.489-4.174-4.449-9.937-6.74-17.291-6.875H648.2v46.201ZM868.605 333.716c0 14.491-2.517 27.195-7.552 38.114-5.035 10.918-12.256 19.343-21.663 25.274-9.341 5.931-20.073 8.896-32.196 8.896-11.991 0-22.69-2.932-32.097-8.795-9.407-5.864-16.694-14.221-21.861-25.072-5.168-10.919-7.785-23.455-7.851-37.608v-7.279c0-14.491 2.551-27.229 7.652-38.215 5.167-11.053 12.421-19.511 21.762-25.375 9.407-5.931 20.139-8.896 32.196-8.896 12.057 0 22.756 2.965 32.097 8.896 9.407 5.864 16.661 14.322 21.762 25.375 5.168 10.986 7.751 23.691 7.751 38.114v6.571Zm-30.209-6.672c0-15.434-2.716-27.161-8.148-35.182-5.432-8.02-13.183-12.03-23.253-12.03-10.003 0-17.721 3.976-23.153 11.929-5.433 7.886-8.182 19.478-8.248 34.777v7.178c0 15.03 2.716 26.69 8.148 34.98 5.433 8.289 13.25 12.434 23.452 12.434 10.003 0 17.688-3.976 23.054-11.929 5.366-8.02 8.082-19.68 8.148-34.979v-7.178ZM977.317 340.186h-57.238v39.428h67.175v24.364h-96.986V256.782h96.787v24.566h-66.976v35.081h57.238v23.757ZM1051.94 343.826h-17.19v60.152h-29.81V256.782h29.81v58.939h13.62l35.37-58.939h36.37l-44.61 69.655 49.28 77.541h-35.57l-37.27-60.152ZM1245.22 281.348h-44.32v122.63h-29.81v-122.63h-43.72v-24.566h117.85v24.566Z" fill="#fff"/><defs><linearGradient id="a" x1="134.118" y1="181.502" x2="271.276" y2="181.502" gradientUnits="userSpaceOnUse"><stop offset=".118" stop-color="#7ACA37"/><stop offset=".256" stop-color="#70C53A"/><stop offset=".489" stop-color="#56B641"/><stop offset=".785" stop-color="#2C9F4E"/><stop offset="1" stop-color="#098C58"/></linearGradient><linearGradient id="b" x1="164.28" y1="181.42" x2="336.754" y2="181.42" gradientUnits="userSpaceOnUse"><stop offset=".118" stop-color="#7ACA37"/><stop offset=".256" stop-color="#70C53A"/><stop offset=".489" stop-color="#56B641"/><stop offset=".785" stop-color="#2C9F4E"/><stop offset="1" stop-color="#098C58"/></linearGradient><linearGradient id="c" x1="80.037" y1="207.507" x2="270.751" y2="207.507" gradientUnits="userSpaceOnUse"><stop offset=".118" stop-color="#7ACA37"/><stop offset=".256" stop-color="#70C53A"/><stop offset=".489" stop-color="#56B641"/><stop offset=".785" stop-color="#2C9F4E"/><stop offset="1" stop-color="#098C58"/></linearGradient><linearGradient id="d" x1="18.972" y1="251.38" x2="270.352" y2="251.38" gradientUnits="userSpaceOnUse"><stop offset=".118" stop-color="#7ACA37"/><stop offset=".256" stop-color="#70C53A"/><stop offset=".489" stop-color="#56B641"/><stop offset=".785" stop-color="#2C9F4E"/><stop offset="1" stop-color="#098C58"/></linearGradient><linearGradient id="e" x1="0" y1="302.367" x2="270.352" y2="302.367" gradientUnits="userSpaceOnUse"><stop offset=".118" stop-color="#7ACA37"/><stop offset=".256" stop-color="#70C53A"/><stop offset=".489" stop-color="#56B641"/><stop offset=".785" stop-color="#2C9F4E"/><stop offset="1" stop-color="#098C58"/></linearGradient><linearGradient id="f" x1="35.573" y1="311.8" x2="270.352" y2="311.8" gradientUnits="userSpaceOnUse"><stop offset=".118" stop-color="#7ACA37"/><stop offset=".256" stop-color="#70C53A"/><stop offset=".489" stop-color="#56B641"/><stop offset=".785" stop-color="#2C9F4E"/><stop offset="1" stop-color="#098C58"/></linearGradient><linearGradient id="g" x1="315.551" y1="234.626" x2="240.609" y2="423.712" gradientUnits="userSpaceOnUse"><stop offset=".118" stop-color="#7ACA37"/><stop offset=".256" stop-color="#70C53A"/><stop offset=".489" stop-color="#56B641"/><stop offset=".785" stop-color="#2C9F4E"/><stop offset="1" stop-color="#098C58"/></linearGradient></defs></svg>