<svg width="105" height="40" fill="none" xmlns="http://www.w3.org/2000/svg"><g clip-path="url(#a)"><path opacity=".4" d="M22.737 20.191 14.326 0S5.69 18.323 17.37 30.44c6.05-5.197 5.367-10.249 5.367-10.249Z" fill="url(#b)"/><path opacity=".4" d="M22.683 20.284 28.253 0S5.174 6.761 17.31 30.427c7.164-2.983 5.373-10.143 5.373-10.143Z" fill="url(#c)"/><path opacity=".4" d="M22.683 20.284 6.765 4.374S5.372 19.29 17.31 30.428c6.169-3.779 5.373-10.143 5.373-10.143Z" fill="url(#d)"/><path opacity=".4" d="m22.683 20.284-21.091-8.55S4.178 22.471 17.31 30.426c4.577-4.972 5.373-10.143 5.373-10.143Z" fill="url(#e)"/><path opacity=".4" d="M22.683 20.284 0 20.683s3.78 5.766 17.31 9.744c5.373-5.568 5.373-10.143 5.373-10.143Z" fill="url(#f)"/><path opacity=".4" d="M22.683 20.284 2.983 30.03s5.77 4.176 14.326.398c4.377-3.779 5.373-10.143 5.373-10.143Z" fill="url(#g)"/><path d="M35.616 17.5s-2.985-2.386-6.566-2.386c-7.363 0-6.367 11.534-18.902 24.858 3.582-.796 20.096-1.989 20.096-15.313 0-3.579.397-6.363 5.372-7.159Z" fill="url(#h)"/><path d="M46.178 8.755h-4.994v3.164h2.575c1.082.014 1.926.297 2.533.85.607.55.91 1.3.91 2.249 0 .953-.305 1.712-.917 2.278-.612.566-1.447.86-2.504.878h-3.97V7.608h6.367v1.147Zm-4.994 4.31v3.97h2.497c.678 0 1.205-.184 1.58-.551.379-.368.569-.862.569-1.48 0-.596-.183-1.065-.548-1.409-.36-.343-.875-.52-1.544-.53h-2.554ZM54.773 15.417h-4.34l-.975 2.757h-1.409l3.956-10.566H53.2l3.963 10.566h-1.402l-.989-2.757Zm-3.928-1.147h3.522l-1.764-4.942-1.758 4.942ZM66.519 18.174h-1.374v-4.883h-5.222v4.883h-1.366V7.608h1.366v4.543h5.222V7.608h1.374v10.566ZM71.634 13.428h-1.26v4.746H69.01V7.608h1.366v4.66h1.067l3.621-4.66h1.7l-3.955 5.124 4.247 5.442h-1.672l-3.749-4.745ZM79.673 14.038v4.136h-1.366V7.608h3.82c1.134 0 2.022.296 2.662.886.645.59.967 1.371.967 2.344 0 1.025-.315 1.816-.946 2.373-.626.551-1.525.827-2.696.827h-2.44Zm0-1.14h2.455c.73 0 1.29-.173 1.679-.522.389-.353.583-.861.583-1.524 0-.629-.194-1.132-.583-1.51-.39-.377-.923-.572-1.6-.587h-2.534v4.144ZM95.468 13.233c0 1.035-.171 1.94-.513 2.714-.341.769-.825 1.357-1.451 1.763-.626.406-1.356.61-2.191.61-.816 0-1.54-.204-2.17-.61-.632-.411-1.122-.994-1.473-1.749-.347-.76-.524-1.637-.534-2.634v-.762c0-1.016.173-1.913.52-2.692.346-.78.835-1.374 1.465-1.786.636-.416 1.361-.624 2.178-.624.83 0 1.56.206 2.19.617.636.407 1.125 1 1.466 1.778.342.774.513 1.676.513 2.707v.668Zm-1.36-.683c0-1.253-.246-2.213-.74-2.88-.493-.673-1.182-1.01-2.07-1.01-.863 0-1.543.337-2.041 1.01-.494.667-.747 1.596-.761 2.786v.777c0 1.214.248 2.17.746 2.866.503.692 1.193 1.038 2.071 1.038.882 0 1.565-.327 2.049-.98.483-.658.732-1.599.747-2.823v-.784ZM104.474 8.755h-3.329v9.42h-1.359v-9.42h-3.322V7.608h8.01v1.147ZM49.682 33.877h-2.51V23.593h-4.86v10.284H39.81V21.533h9.871v12.344ZM54.384 29.528v4.349h-2.5V21.533h4.735c.911 0 1.712.17 2.4.509.696.339 1.23.822 1.602 1.45.372.621.558 1.33.558 2.127 0 1.21-.408 2.165-1.226 2.866-.811.695-1.937 1.043-3.376 1.043h-2.193Zm0-2.06h2.235c.661 0 1.164-.159 1.509-.475.35-.317.525-.769.525-1.357 0-.604-.175-1.093-.525-1.466-.35-.373-.834-.565-1.451-.577h-2.293v3.875ZM72.876 27.985c0 1.215-.21 2.28-.633 3.196-.423.915-1.029 1.622-1.818 2.12-.784.496-1.684.745-2.701.745-1.006 0-1.904-.246-2.693-.737-.79-.492-1.4-1.193-1.834-2.103-.434-.915-.653-1.967-.659-3.154v-.61c0-1.215.214-2.283.642-3.205.434-.926 1.042-1.636 1.826-2.127.79-.498 1.69-.747 2.701-.747 1.012 0 1.91.25 2.693.747.79.491 1.398 1.2 1.826 2.127.434.922.65 1.987.65 3.197v.55Zm-2.534-.56c0-1.294-.228-2.278-.684-2.95-.456-.673-1.106-1.009-1.95-1.009-.84 0-1.488.333-1.943 1-.456.662-.687 1.634-.692 2.917v.602c0 1.26.228 2.238.683 2.933.456.695 1.112 1.043 1.968 1.043.84 0 1.484-.334 1.934-1 .45-.673.678-1.651.684-2.934v-.602ZM81.997 28.527h-4.802v3.307h5.636v2.043h-8.137V21.533h8.12v2.06h-5.619v2.942h4.802v1.992ZM88.258 28.832h-1.442v5.045h-2.501V21.533h2.5v4.943h1.144l2.967-4.943h3.052l-3.743 5.841 4.135 6.503h-2.985l-3.127-5.045ZM104.474 23.593h-3.718v10.284h-2.501V23.593h-3.668v-2.06h9.887v2.06Z" fill="#fff"/></g><defs><linearGradient id="b" x1="11.253" y1="15.22" x2="22.76" y2="15.22" gradientUnits="userSpaceOnUse"><stop offset=".118" stop-color="#7ACA37"/><stop offset=".256" stop-color="#70C53A"/><stop offset=".489" stop-color="#56B641"/><stop offset=".785" stop-color="#2C9F4E"/><stop offset="1" stop-color="#098C58"/></linearGradient><linearGradient id="c" x1="13.783" y1="15.213" x2="28.254" y2="15.213" gradientUnits="userSpaceOnUse"><stop offset=".118" stop-color="#7ACA37"/><stop offset=".256" stop-color="#70C53A"/><stop offset=".489" stop-color="#56B641"/><stop offset=".785" stop-color="#2C9F4E"/><stop offset="1" stop-color="#098C58"/></linearGradient><linearGradient id="d" x1="6.715" y1="17.401" x2="22.716" y2="17.401" gradientUnits="userSpaceOnUse"><stop offset=".118" stop-color="#7ACA37"/><stop offset=".256" stop-color="#70C53A"/><stop offset=".489" stop-color="#56B641"/><stop offset=".785" stop-color="#2C9F4E"/><stop offset="1" stop-color="#098C58"/></linearGradient><linearGradient id="e" x1="1.592" y1="21.08" x2="22.683" y2="21.08" gradientUnits="userSpaceOnUse"><stop offset=".118" stop-color="#7ACA37"/><stop offset=".256" stop-color="#70C53A"/><stop offset=".489" stop-color="#56B641"/><stop offset=".785" stop-color="#2C9F4E"/><stop offset="1" stop-color="#098C58"/></linearGradient><linearGradient id="f" x1="0" y1="25.356" x2="22.683" y2="25.356" gradientUnits="userSpaceOnUse"><stop offset=".118" stop-color="#7ACA37"/><stop offset=".256" stop-color="#70C53A"/><stop offset=".489" stop-color="#56B641"/><stop offset=".785" stop-color="#2C9F4E"/><stop offset="1" stop-color="#098C58"/></linearGradient><linearGradient id="g" x1="2.985" y1="26.147" x2="22.683" y2="26.147" gradientUnits="userSpaceOnUse"><stop offset=".118" stop-color="#7ACA37"/><stop offset=".256" stop-color="#70C53A"/><stop offset=".489" stop-color="#56B641"/><stop offset=".785" stop-color="#2C9F4E"/><stop offset="1" stop-color="#098C58"/></linearGradient><linearGradient id="h" x1="26.475" y1="19.675" x2="20.193" y2="35.533" gradientUnits="userSpaceOnUse"><stop offset=".118" stop-color="#7ACA37"/><stop offset=".256" stop-color="#70C53A"/><stop offset=".489" stop-color="#56B641"/><stop offset=".785" stop-color="#2C9F4E"/><stop offset="1" stop-color="#098C58"/></linearGradient><clipPath id="a"><path fill="#fff" d="M0 0h104.54v40H0z"/></clipPath></defs></svg>