<svg width="20" height="32" fill="none" xmlns="http://www.w3.org/2000/svg"><path d="M17.568 20.869c-1.712 1.087-4.068 1.518-5.624 1.68l1.306 1.287 4.768 4.768c1.743 1.787-1.094 4.58-2.856 2.855a1002.838 1002.838 0 0 0-4.767-4.786l-4.767 4.78c-1.762 1.718-4.599-1.1-2.837-2.856 1.212-1.212 2.943-2.961 4.767-4.767l1.287-1.287c-1.537-.162-3.93-.569-5.66-1.68-2.037-1.313-2.93-2.081-2.143-3.687.462-.912 1.73-1.68 3.411-.356 0 0 2.268 1.805 5.93 1.805 3.66 0 5.929-1.805 5.929-1.805 1.68-1.319 2.943-.556 3.411.356.775 1.606-.118 2.374-2.155 3.693ZM2.272 8.104C2.272 3.624 5.915 0 10.376 0c4.461 0 8.104 3.624 8.104 8.104 0 4.46-3.643 8.085-8.104 8.085-4.461 0-8.104-3.624-8.104-8.085Zm4.124 0a3.986 3.986 0 0 0 3.98 3.98 3.986 3.986 0 0 0 3.98-3.98c0-2.212-1.787-3.999-3.98-3.999s-3.98 1.787-3.98 3.999Z" fill="url(#a)"/><defs><linearGradient id="a" x1="13.094" y1="5.872" x2="2.142" y2="22.098" gradientUnits="userSpaceOnUse"><stop offset=".118" stop-color="#7ACA37"/><stop offset=".256" stop-color="#70C53A"/><stop offset=".489" stop-color="#56B641"/><stop offset=".785" stop-color="#2C9F4E"/><stop offset="1" stop-color="#098C58"/></linearGradient></defs></svg>