<svg width="96" height="96" fill="none" xmlns="http://www.w3.org/2000/svg"><path d="M79.321 18.353a1.368 1.368 0 0 0-.314-.073C67.71 17.15 58.639 14.65 48.34 5.685a1.385 1.385 0 0 0-1.953.135c-.029.032-.037.074-.062.109-10.215 8.825-19.243 11.307-30.468 12.429-.026.003-.05.011-.076.015a1.367 1.367 0 0 0-1.163 1.281c-.002.028-.009.054-.009.081V55.33c0 .123.016.244.049.362C20.85 78.528 45.833 89.38 46.894 89.83a1.39 1.39 0 0 0 1.077.003c1.072-.451 26.342-11.302 32.534-34.14.02-.072.033-.145.04-.22l.122-1.186c.004-.047.007-.094.007-.14V19.735c0-.754-.603-1.365-1.353-1.382Zm-1.519 36.724c-5.4 19.672-26.689 30.264-30.364 31.96-3.643-1.698-24.622-12.245-30.059-31.893V20.977c10.953-1.21 19.988-3.879 30.099-12.401 10.204 8.567 19.318 11.181 30.427 12.37v33.13l-.103 1.002Z" fill="url(#a)"/><path d="M52.995 49.572c7.17 0 13.005-5.96 13.005-13.286S60.166 23 52.995 23h-21.13a.873.873 0 0 0-.864.882c0 .488.386.883.863.883h4.237l-.04 23.042h-4.183a.873.873 0 0 0-.864.882c0 .487.387.883.864.883h4.18l-.012 6.5h-4.182a.873.873 0 0 0-.864.882c0 .487.386.883.864.883h4.179l-.023 13.279c-.001.488.385.883.862.884h.001a.873.873 0 0 0 .864-.88l.023-13.283h16.093a.873.873 0 0 0 .864-.883.873.873 0 0 0-.864-.882H37.774l.011-6.5h15.21ZM37.828 24.764h15.167c6.218 0 11.278 5.17 11.278 11.522 0 6.353-5.06 11.521-11.278 11.521H37.788l.04-23.043Z" fill="url(#b)"/><defs><linearGradient id="a" x1="63.692" y1="-4.426" x2="-5.524" y2="59.554" gradientUnits="userSpaceOnUse"><stop offset=".118" stop-color="#7ACA37"/><stop offset=".256" stop-color="#70C53A"/><stop offset=".489" stop-color="#56B641"/><stop offset=".785" stop-color="#2C9F4E"/><stop offset="1" stop-color="#098C58"/></linearGradient><linearGradient id="b" x1="57.003" y1="17.34" x2="17.347" y2="50.867" gradientUnits="userSpaceOnUse"><stop offset=".118" stop-color="#7ACA37"/><stop offset=".256" stop-color="#70C53A"/><stop offset=".489" stop-color="#56B641"/><stop offset=".785" stop-color="#2C9F4E"/><stop offset="1" stop-color="#098C58"/></linearGradient></defs></svg>