<svg width="154" height="140" fill="none" xmlns="http://www.w3.org/2000/svg"><path d="M148.892 3.62a13.807 13.807 0 0 0-13.945-2.393L8.755 50.856A13.467 13.467 0 0 0 .142 64.733 13.672 13.672 0 0 0 11.08 76.969l29.873 5.947v37.803a13.606 13.606 0 0 0 8.408 12.646 14.151 14.151 0 0 0 5.264 1.026 13.407 13.407 0 0 0 9.638-4.033l15.928-15.928 25.02 22.011a13.456 13.456 0 0 0 8.955 3.418 12.777 12.777 0 0 0 4.238-.683 13.612 13.612 0 0 0 9.16-9.912l25.703-112.246a13.672 13.672 0 0 0-4.375-13.399ZM90.103 36.5 47.242 67.467l-23.79-4.785L90.104 36.5ZM57.36 114.088V94.332l10.527 9.229-10.527 10.527Zm55.234 7.041L62.281 76.832l72.461-52.295-22.149 96.592Z" fill="url(#a)"/><defs><linearGradient id="a" x1="76.847" y1=".302" x2="76.847" y2="139.86" gradientUnits="userSpaceOnUse"><stop stop-color="#7BCB38"/><stop offset=".995" stop-color="#149356"/></linearGradient></defs></svg>