<svg width="33" height="22" fill="none" xmlns="http://www.w3.org/2000/svg"><path d="M17.842 20.99c-10.94 0-17.18-7.5-17.44-20h5.48c.18 9.16 4.22 13 7.42 13.84V1.01h5.16v7.9c3.16-.34 6.48-3.94 7.6-7.9h5.16a15.241 15.241 0 0 1-7 10 15.791 15.791 0 0 1 8.22 10h-5.7a9.87 9.87 0 0 0-8.28-7.14v7.14l-.62-.02Z" fill="#fff"/><path d="M17.842 20.99c-10.94 0-17.18-7.5-17.44-20h5.48c.18 9.16 4.22 13 7.42 13.84V1.01h5.16v7.9c3.16-.34 6.48-3.94 7.6-7.9h5.16a15.241 15.241 0 0 1-7 10 15.791 15.791 0 0 1 8.22 10h-5.7a9.87 9.87 0 0 0-8.28-7.14v7.14l-.62-.02Z" fill="url(#a)"/><defs><linearGradient id="a" x1="24.206" y1="-1.323" x2="10.638" y2="24.378" gradientUnits="userSpaceOnUse"><stop offset=".118" stop-color="#7ACA37"/><stop offset=".256" stop-color="#70C53A"/><stop offset=".489" stop-color="#56B641"/><stop offset=".785" stop-color="#2C9F4E"/><stop offset="1" stop-color="#098C58"/></linearGradient></defs></svg>