<svg width="20" height="21" fill="none" xmlns="http://www.w3.org/2000/svg"><path d="M17.005 3.406A9.836 9.836 0 0 0 9.995.5C4.532.5.086 4.946.086 10.41c0 1.746.455 3.452 1.321 4.956L0 20.5l5.254-1.38a9.88 9.88 0 0 0 4.737 1.206h.005c5.46 0 10.004-4.447 10.004-9.91 0-2.648-1.125-5.135-2.995-7.01Zm-7.01 15.25A8.223 8.223 0 0 1 5.8 17.51L5.5 17.33l-3.116.817.83-3.04-.196-.312a8.21 8.21 0 0 1-1.26-4.384c0-4.54 3.697-8.237 8.242-8.237 2.2 0 4.268.857 5.821 2.415 1.554 1.558 2.51 3.625 2.505 5.826 0 4.545-3.79 8.241-8.33 8.241Zm4.518-6.17c-.245-.124-1.464-.723-1.692-.803-.227-.085-.392-.125-.558.125-.165.25-.638.804-.785.973-.143.165-.29.188-.536.063-1.455-.728-2.41-1.3-3.37-2.947-.255-.437.254-.406.727-1.352.08-.166.04-.308-.022-.433-.063-.125-.558-1.344-.764-1.84-.2-.482-.406-.415-.558-.424-.142-.009-.308-.009-.473-.009a.917.917 0 0 0-.66.308c-.228.25-.867.849-.867 2.067 0 1.219.889 2.398 1.01 2.563.124.165 1.745 2.665 4.231 3.74 1.572.68 2.188.737 2.974.621.477-.071 1.464-.598 1.67-1.178.205-.58.205-1.076.142-1.179-.058-.111-.223-.174-.469-.294Z" fill="url(#a)"/><defs><linearGradient id="a" x1="12.822" y1="4.17" x2="7.678" y2="16.843" gradientUnits="userSpaceOnUse"><stop offset=".118" stop-color="#7ACA37"/><stop offset=".256" stop-color="#70C53A"/><stop offset=".489" stop-color="#56B641"/><stop offset=".785" stop-color="#2C9F4E"/><stop offset="1" stop-color="#098C58"/></linearGradient></defs></svg>