<svg width="33" height="32" fill="none" xmlns="http://www.w3.org/2000/svg"><path d="M27.609 4.65C24.616 1.65 20.63 0 16.395 0 7.652 0 .538 7.114.538 15.857c0 2.793.728 5.522 2.114 7.929L.402 32l8.407-2.207a15.81 15.81 0 0 0 7.579 1.928h.007c8.735 0 16.007-7.114 16.007-15.857 0-4.235-1.8-8.214-4.793-11.214Zm-11.214 24.4c-2.372 0-4.693-.636-6.715-1.836l-.478-.285-4.986 1.307 1.329-4.865-.315-.5a13.136 13.136 0 0 1-2.014-7.014C3.216 8.593 9.13 2.68 16.402 2.68c3.521 0 6.828 1.371 9.314 3.864 2.486 2.493 4.014 5.8 4.007 9.321 0 7.272-6.064 13.186-13.328 13.186Zm7.228-9.871c-.393-.2-2.343-1.158-2.707-1.286-.364-.136-.628-.2-.893.2-.264.4-1.021 1.286-1.257 1.557-.228.264-.464.3-.857.1-2.329-1.164-3.857-2.079-5.393-4.714-.407-.7.407-.65 1.164-2.165.129-.264.065-.492-.035-.693-.1-.2-.893-2.15-1.222-2.942-.321-.772-.65-.665-.893-.679-.228-.014-.492-.014-.757-.014-.264 0-.693.1-1.057.493-.364.4-1.386 1.357-1.386 3.307s1.422 3.836 1.615 4.1c.2.264 2.793 4.264 6.771 5.986 2.514 1.085 3.5 1.178 4.757.992.765-.114 2.343-.957 2.672-1.885.328-.929.328-1.722.228-1.886-.093-.179-.357-.279-.75-.471Z" fill="url(#a)"/><defs><linearGradient id="a" x1="20.916" y1="5.872" x2="12.687" y2="26.15" gradientUnits="userSpaceOnUse"><stop offset=".118" stop-color="#7ACA37"/><stop offset=".256" stop-color="#70C53A"/><stop offset=".489" stop-color="#56B641"/><stop offset=".785" stop-color="#2C9F4E"/><stop offset="1" stop-color="#098C58"/></linearGradient></defs></svg>